<svg xmlns="http://www.w3.org/2000/svg" xmlns:xlink="http://www.w3.org/1999/xlink" version="1.1" x="0px" y="0px" viewBox="0 0 62 62" enable-background="new 0 0 62 62" xml:space="preserve"><g><g><path d="M31,39.1c-1.9,0-3.8-0.5-5.5-1.5C17.2,32.7,12,23.7,12,14V0h38v14c0,9.6-5.2,18.7-13.5,23.6C34.8,38.6,32.9,39.1,31,39.1z     M14,2v12c0,8.9,4.8,17.3,12.5,21.8c2.8,1.6,6.2,1.6,9,0C43.2,31.3,48,23,48,14V2H14z"></path></g><g><path d="M43,54H19v-6h24V54z M21,52h20v-2H21V52z"></path></g><g><path d="M45,62H17V52h28V62z M19,60h24v-6H19V60z"></path></g><g><path d="M35,50h-8V36.2l1.3,0.4c1.8,0.6,3.6,0.6,5.4,0l1.3-0.4V50z M29,48h4v-9.1c-1.3,0.2-2.7,0.2-4,0V48z"></path></g><g><g><path d="M19.9,30.7L16.6,29C7.6,24.3,2,15.1,2,5V4h12v10c0,4.8,1.4,9.5,3.9,13.6L19.9,30.7z M4,6c0.3,7.8,4.2,14.9,10.4,19.3     C12.8,21.8,12,17.9,12,14V6H4z"></path></g><g><path d="M42.1,30.7l2-3.1C46.6,23.5,48,18.8,48,14V4h12v1c0,10.1-5.6,19.3-14.6,24L42.1,30.7z M50,6v8c0,3.9-0.8,7.8-2.5,11.3     C53.8,20.9,57.7,13.8,58,6H50z"></path></g></g><g><path d="M39.3,29.2l-8.3-6l-8.3,6l3.2-9.7l-8.3-6h10.2L31,3.8l3.2,9.7h10.2l-8.3,6L39.3,29.2z M31,20.7l4.5,3.2l-1.7-5.2l4.5-3.2    h-5.5L31,10.2l-1.7,5.2h-5.5l4.5,3.2L26.5,24L31,20.7z"></path></g></g></svg>