<svg xmlns="http://www.w3.org/2000/svg" xmlns:xlink="http://www.w3.org/1999/xlink" version="1.1" x="0px" y="0px" viewBox="0 0 73 73" enable-background="new 0 0 73 73" xml:space="preserve"><g><path d="M72.5,14.3c0-0.6-0.3-1.2-0.8-1.6L55.4,0.9c-0.3-0.2-0.8-0.4-1.2-0.4H18.7c-0.4,0-0.8,0.1-1.2,0.4L1.3,12.7   c-0.5,0.4-0.8,1-0.8,1.6c0,0,0,7.2,0,7.2c0,1.8,0.6,3.5,1.7,4.8v44.2c0,1.1,0.9,2,2,2h64.6c1.1,0,2-0.9,2-2V26.3   c1.1-1.3,1.7-3,1.7-4.8C72.5,21.5,72.5,14.3,72.5,14.3z M53.6,4.5l10.8,7.8H60l-7.2-7.8H53.6z M57.2,16.3v5.2c0,2-1.6,3.7-3.7,3.7   c-2,0-3.7-1.6-3.7-3.7v-5.2H57.2z M47.5,4.5l7.2,7.8h-5.5l-3.6-7.8H47.5z M38.5,4.5h2.6l3.6,7.8h-6.2V4.5z M38.5,16.3h7.3v5.2   c0,2-1.6,3.7-3.7,3.7c-2,0-3.7-1.6-3.7-3.7V16.3z M31.9,4.5h2.6v7.8h-6.2L31.9,4.5z M34.5,16.3v5.2c0,2-1.6,3.7-3.7,3.7   c-2,0-3.7-1.6-3.7-3.7v-5.2H34.5z M25.5,4.5h1.9l-3.6,7.8h-5.5L25.5,4.5z M23.2,16.3v5.2c0,2-1.6,3.7-3.7,3.7c-2,0-3.7-1.6-3.7-3.7   v-5.2H23.2z M19.4,4.5h0.7L13,12.3H8.6L19.4,4.5z M4.5,21.5v-5.2h7.3v5.2c0,2-1.6,3.7-3.7,3.7C6.1,25.2,4.5,23.5,4.5,21.5z    M31.9,68.5H15.4V36h16.5V68.5z M66.8,68.5H35.9V34c0-1.1-0.9-2-2-2H13.4c-1.1,0-2,0.9-2,2v34.5H6.2V28.9c0.6,0.2,1.3,0.3,2,0.3   c2.2,0,4.3-1,5.7-2.5c1.4,1.5,3.4,2.5,5.7,2.5c2.2,0,4.3-1,5.7-2.5c1.4,1.5,3.4,2.5,5.7,2.5s4.3-1,5.7-2.5c1.4,1.5,3.4,2.5,5.7,2.5   c2.2,0,4.3-1,5.7-2.5c1.4,1.5,3.4,2.5,5.7,2.5c2.2,0,4.3-1,5.7-2.5c1.4,1.5,3.4,2.5,5.7,2.5c0.7,0,1.3-0.1,2-0.3V68.5z M68.5,21.5   c0,2-1.6,3.7-3.7,3.7c-2,0-3.7-1.6-3.7-3.7v-5.2h7.3V21.5z"></path><path d="M60.6,37.4H42.4c-1.1,0-2,0.9-2,2v15.2c0,1.1,0.9,2,2,2h18.2c1.1,0,2-0.9,2-2V39.4C62.6,38.3,61.7,37.4,60.6,37.4z    M58.6,52.6H44.4V41.4h14.2V52.6z"></path></g></svg>