<svg xmlns:dc="http://purl.org/dc/elements/1.1/" xmlns:cc="http://creativecommons.org/ns#" xmlns:rdf="http://www.w3.org/1999/02/22-rdf-syntax-ns#" xmlns:svg="http://www.w3.org/2000/svg" xmlns="http://www.w3.org/2000/svg" xmlns:sodipodi="http://sodipodi.sourceforge.net/DTD/sodipodi-0.dtd" xmlns:inkscape="http://www.inkscape.org/namespaces/inkscape" version="1.1" x="0px" y="0px" viewBox="0 0 100 100"><g transform="translate(0,-952.36218)"><path d="m 54.8125,7 c -0.18921,0.042608 -0.365332,0.1416772 -0.5,0.28125 l -46,45 C 7.5375676,53.03935 7,54.17005 7,55.53125 c 0,1.2696 0.5135071,2.38845 1.28125,3.15625 l 33,33 C 41.977442,92.3838 42.892757,93 44,93 c 1.153753,0 2.030793,-0.65315 2.6875,-1.28125 l 46,-44 C 92.882438,47.534195 92.997986,47.268435 93,47 L 93,8 C 92.999948,7.4764155 92.523584,7.0000524 92,7 L 55,7 c -0.06232,-0.00587 -0.125184,-0.00587 -0.1875,0 z M 55.375,9 91,9 91,46.5625 45.3125,90.25 C 44.833047,90.7086 44.336967,91 44,91 43.616523,91 43.213258,90.77585 42.71875,90.28125 l -33,-33 C 9.3388329,56.90135 9,56.22075 9,55.53125 9,54.66915 9.2948524,54.0716 9.6875,53.6875 z M 75,17 c -4.406435,0 -8,3.59357 -8,8 0,4.40644 3.593566,8 8,8 4.406435,0 8,-3.59356 8,-8 0,-4.40643 -3.593565,-8 -8,-8 z m 0,2 c 3.325554,0 6,2.67445 6,6 0,3.32555 -2.674445,6 -6,6 -3.325554,0 -6,-2.67445 -6,-6 0,-3.32555 2.674446,-6 6,-6 z" transform="translate(0,952.36218)" marker="none" visibility="visible" display="inline" overflow="visible"></path></g></svg>
