<svg class="icon icon-heart" xmlns="http://www.w3.org/2000/svg" viewBox="0 0 100 90"><path style="text-indent:0;text-transform:none;block-progression:tb" d="M28.2166 11.004c-6.1854 0-12.3682 2.342-17.0938 7-9.4512 9.316-9.4396 24.49 0 33.8125l36.75 36.3126a3.0003 3.0003 0 0 0 4.2188 0C64.3563 76.04 76.608 63.9685 88.8728 51.879c9.4512-9.3158 9.4512-24.5278 0-33.8437-9.4512-9.3158-24.7362-9.316-34.1875 0L50.029 22.629l-4.7187-4.625c-4.7256-4.658-10.9084-7-17.0937-7zm0 5.9688c4.6526 0 9.296 1.7847 12.875 5.3125l6.8124 6.6875a3.0003 3.0003 0 0 0 4.2188 0l6.7812-6.6563c7.1582-7.0557 18.592-7.0555 25.75 0 7.158 7.0556 7.158 18.2258 0 25.2813-11.5562 11.391-23.1 22.7655-34.6562 34.1563L15.3416 47.5666c-7.1536-7.0647-7.158-18.2257 0-25.2812 3.579-3.5278 8.2223-5.3125 12.875-5.3125z" overflow="visible" color="#000"/></svg>
