<svg xmlns="http://www.w3.org/2000/svg" xmlns:xlink="http://www.w3.org/1999/xlink" version="1.1" x="0px" y="0px" viewBox="0 0 100 100" style="enable-background:new 0 0 100 100;" xml:space="preserve"><g><path d="M88.5,23.6L76.4,11.5c-1-1-2.3-1.5-3.7-1.5c-1.4,0-2.7,0.5-3.7,1.5l-8,8l19.5,19.5l8-8C90.5,29,90.5,25.7,88.5,23.6z    M86.4,29l-6,6L65,19.5l6-6c0.9-0.9,2.5-0.9,3.4,0l12.1,12.1C87.4,26.6,87.4,28.1,86.4,29z"/><path d="M55.1,25.4L11.9,68.6c-0.7,0.7-1.1,1.6-1.1,2.6l-0.7,16c0,0.8,0.2,1.5,0.8,2c0.5,0.5,1.2,0.8,1.9,0.8c0,0,0.1,0,0.1,0   l16-0.7c1,0,1.9-0.5,2.6-1.1l43.2-43.2L55.1,25.4z M62.7,37L21.9,77.9l-7.6-7.6l40.8-40.8L62.7,37z M13.5,73.6l12.9,12.9l-13.5,0.6   L13.5,73.6z M29.7,85.7l-5.8-5.8l40.8-40.8l5.8,5.8L29.7,85.7z"/></g></svg>
